Simulation
nRows=48
nColumns=15
endheader
time  TH_x TH_y TH_z SC_y  SC_z  SC_x  AC_y  AC_z  AC_x  GH_y  GH_z  GH_yy  EL_x  PS_y
0.0  0.000000  0.000000  0.000000  -32.0345048570877  1.5364430573950731  29.890015925176705  52.45469440286287  -13.532393009770084  -20.22269330781507  -132.3059011082312  3.2253426144536337  161.86570975755606  22.587343577004038  0.000000
0.031  0.000000  0.000000  0.000000  -32.00132343415253  1.3672226375091028  29.96817350761629  51.92134668429385  -14.351738650243403  -20.935944620928495  -122.29013690307085  3.6518745197701166  151.6753234607782  22.391215650884057  0.000000
0.062  0.000000  0.000000  0.000000  -31.754320618642687  0.9907607677987824  29.996420891907977  51.46011055703117  -15.394078042034637  -21.5777388190354  -115.58358956752465  3.9179057543774882  144.6716483888939  22.27548946695567  0.000000
0.093  0.000000  0.000000  0.000000  -31.489773172555072  0.5149239128696318  30.003823234303198  51.07863445634781  -16.478159244778997  -22.193774811220365  -112.06572934121635  3.9491998368491474  140.75457919422044  22.25141374296978  0.000000
0.124  0.000000  0.000000  0.000000  -31.221587989783274  0.025218127948704  30.033450798729742  50.723247312820426  -17.511432363695384  -22.78590621595043  -110.63040440057286  3.793122214066742  138.87078250302363  22.261381268232494  0.000000
0.155  0.000000  0.000000  0.000000  -30.96730034463812  -0.43841071782516444  30.095682029608557  50.38546297557706  -18.427277879397945  -23.35550555347583  -110.45875643449813  3.488548371241012  138.21042446333908  22.281298830491135  0.000000
0.186  0.000000  0.000000  0.000000  -30.723680858232317  -0.8457427106567212  30.186627838329326  50.069273065131526  -19.206388457877907  -23.881646424284934  -110.58403541826922  3.0724790544455165  137.82219173296477  22.292805462666333  0.000000
0.217  0.000000  0.000000  0.000000  -30.49562837156239  -1.1853319162352283  30.305170429957634  49.78616392749209  -19.846820189613865  -24.357340130045284  -110.01190044440588  2.5588290575927743  136.70834580799905  22.2914567095209  0.000000
0.248  0.000000  0.000000  0.000000  -30.288783174364955  -1.4566289928529088  30.446990514235694  49.54478472910152  -20.361145602016872  -24.7700974878572  -106.80469582080785  1.9619527915480846  132.93432841426534  22.272810148207558  0.000000
0.279  0.000000  0.000000  0.000000  -30.11014379022561  -1.6657244101892033  30.612697391465915  49.35368784744002  -20.766903760054234  -25.122024609963898  -95.6938591171174  1.3107929355229426  121.2270987349257  22.23818293435696  0.000000
0.31  0.000000  0.000000  0.000000  -29.96638930907092  -1.8184291264572408  30.803958896462344  49.21534102172262  -21.084721948422743  -25.413047177328693  -56.82066917539434  0.8258376357317674  81.73192952788955  22.18952217144482  0.000000
0.34099999999999997  0.000000  0.000000  0.000000  -29.86072487459918  -1.92140541623149  31.02590158903214  49.129621022935574  -21.334120202703946  -25.651956123889814  -1.8717730093926943  1.1846137578508769  26.13369121660604  22.129112791810712  0.000000
0.372  0.000000  0.000000  0.000000  -29.79721152173696  -1.9806995858212588  31.282687857607904  49.09298708817876  -21.53317163700273  -25.84486741555665  17.460902484719853  2.1644020358781537  6.128545856063382  22.058507877427548  0.000000
0.403  0.000000  0.000000  0.000000  -29.7741484773417  -2.0010260338558057  31.57984119136388  49.100272776923866  -21.69449516042181  -26.001393903048978  23.994633797138526  3.3751286796899453  -1.099904629655277  21.979884952346087  0.000000
0.434  0.000000  0.000000  0.000000  -29.789044104972437  -1.9859300191459002  31.919428884793618  49.146867184198186  -21.828345540284534  -26.127210444444955  26.70967444787458  4.732756219531053  -4.527252361186229  21.894939449779  0.000000
0.46499999999999997  0.000000  0.000000  0.000000  -29.8374922528527  -1.9387725133713476  32.30580566960795  49.227321118493904  -21.940463962531414  -26.229871155161476  27.968324194383094  6.205400960788634  -6.513608851310841  21.80528737530148  0.000000
0.496  0.000000  0.000000  0.000000  -29.913716403034847  -1.86097114144782  32.738798660723354  49.33799593081861  -22.034939529104417  -26.312602009451552  28.568749654511194  7.77158372444565  -7.853357201397545  21.711982223364647  0.000000
0.527  0.000000  0.000000  0.000000  -30.014269785479243  -1.752524354926119  33.218646303185594  49.47317699982563  -22.110426098341122  -26.37633685173478  28.836365996859534  9.409905980453836  -8.868986403981204  21.61634017276856  0.000000
0.558  0.000000  0.000000  0.000000  -30.131150935999106  -1.6177503044743575  33.74024527979257  49.63236387256794  -22.163488926187878  -26.42340943036586  28.911325744241843  11.103062463742576  -9.699566472695135  21.517047534748365  0.000000
0.589  0.000000  0.000000  0.000000  -30.263475810799008  -1.4561891925781996  34.30714611245591  49.807748940387384  -22.19312404523839  -26.457169495264676  28.856828679074884  12.834772562525233  -10.405570601785449  21.414301032396995  0.000000
0.62  0.000000  0.000000  0.000000  -30.407648719690783  -1.2650849462493448  34.89897092933932  49.99990703594016  -22.18581891693998  -26.466674872736863  28.716631054476753  14.594567335835862  -11.029375662986217  21.309418897038842  0.000000
0.651  0.000000  0.000000  0.000000  -30.559038350766095  -1.050164597393908  35.49504767497567  50.211720261318575  -22.125848470564105  -26.440121350023478  28.50664739501209  16.37344933042538  -11.584723841204138  21.201497614051576  0.000000
0.6819999999999999  0.000000  0.000000  0.000000  -30.71212609311989  -0.8175890992379726  36.08688699809703  50.44446358823875  -22.01233782113096  -26.378271607210714  28.246819852058156  18.163710280887543  -12.091863642188228  21.0903598469622  0.000000
0.713  0.000000  0.000000  0.000000  -30.865895814334603  -0.5730746200364524  36.6742152474014  50.69313742700806  -21.84690352852009  -26.28413358472838  27.942196296824413  19.955273473125505  -12.554058844143597  20.976654790404133  0.000000
0.744  0.000000  0.000000  0.000000  -31.01605422147834  -0.3205172246364433  37.268103209340126  50.951282530039315  -21.64324290058287  -26.17062415151117  27.601177840325086  21.740750066685163  -12.978582590304294  20.86058639111638  0.000000
0.775  0.000000  0.000000  0.000000  -31.16225299643717  -0.05749135668577802  37.88241161613047  51.21030739297141  -21.414959356183445  -26.044883141428475  27.235409565689675  23.513932088757947  -13.372961010796335  20.7426178236366  0.000000
0.806  0.000000  0.000000  0.000000  -31.301181008495938  0.2180996859631237  38.51301568521375  51.46554331217815  -21.16531604566893  -25.90736449129883  26.857480153082342  25.272892564179912  -13.746887815088144  20.623931515714386  0.000000
0.837  0.000000  0.000000  0.000000  -31.433117919073354  0.5055005654652369  39.155945033388164  51.71215184465469  -20.894154893213162  -25.75651317033246  26.470706208623728  27.014872072555168  -14.099529604688948  20.50539630914193  0.000000
0.868  0.000000  0.000000  0.000000  -31.556688302335047  0.803857180881362  39.80443226319626  51.94728639539882  -20.603531864736194  -25.592041467435894  26.079786604622686  28.73794816302086  -14.432473444375317  20.38681608430495  0.000000
0.899  0.000000  0.000000  0.000000  -31.67380102605733  1.111867416266268  40.45260150646744  52.167683565081035  -20.29357011442031  -25.41143826700887  25.68614002669098  30.439483284945734  -14.74284581516  20.268866124691428  0.000000
0.9299999999999999  0.000000  0.000000  0.000000  -31.78416245795742  1.4282773346956252  41.09261476494794  52.37174096217396  -19.966494919918773  -25.213593567341288  25.293156656671098  32.117244552089815  -15.030887582720283  20.15144189699197  0.000000
0.961  0.000000  0.000000  0.000000  -31.890109705273563  1.75105674495059  41.718541617364075  52.55787636983347  -19.622854474435314  -24.996149657916426  24.902017954381986  33.76865100241848  -15.29418791074343  20.034928202799584  0.000000
0.992  0.000000  0.000000  0.000000  -31.991302592616776  2.0782781470252734  42.32410687103239  52.72542529594173  -19.26579164185507  -24.758986534851488  24.515864394140525  35.39128285671547  -15.533290981157725  19.91944301069272  0.000000
1.023  0.000000  0.000000  0.000000  -32.09077710948163  2.4088175424990186  42.90513438841552  52.8744461729973  -18.89733012062524  -24.49988749973137  24.13820749160248  36.98254769894794  -15.74880584331319  19.805179382226726  0.000000
1.054  0.000000  0.000000  0.000000  -32.18844037057255  2.7408079087866692  43.4554862034085  53.006086996950906  -18.51980811401986  -24.218353139000072  23.772512713096173  38.5396149383876  -15.942450231292124  19.692615895067007  0.000000
1.085  0.000000  0.000000  0.000000  -32.286754234162515  3.0719520419304365  43.97190856347713  53.12189654048732  -18.13425202979799  -23.913282486545835  23.42052715477801  40.059302584631304  -16.114483099540898  19.58192276283196  0.000000
1.116  0.000000  0.000000  0.000000  -32.38538356700783  3.399965447377553  44.44951518726606  53.22378794497864  -17.743236769813215  -23.585336257596254  23.08422132026451  41.53859027832592  -16.266487471049313  19.4732876224263  0.000000
1.147  0.000000  0.000000  0.000000  -32.48698029320221  3.7228766693115114  44.88684138000807  53.31360045858689  -17.348696566675557  -23.23487991434726  22.765244709381975  42.97430202349991  -16.39965736647902  19.367135190809737  0.000000
1.178  0.000000  0.000000  0.000000  -32.59061332072265  4.03823389055151  45.280609158042175  53.39361904617325  -16.95367348458371  -22.864066056276556  22.465278487857294  44.36373317966483  -16.516685504425954  19.263590565663385  0.000000
1.209  0.000000  0.000000  0.000000  -32.69786494570342  4.343863055072361  45.631750956656404  53.466385748871886  -16.560700315502054  -22.474500783710617  22.18471725716994  45.70348199991484  -16.61903573289031  19.162620258948074  0.000000
1.24  0.000000  0.000000  0.000000  -32.80757739036613  4.637514390885342  45.93836351455851  53.53466320513758  -16.172988954378244  -22.069120518945567  21.923590438461424  46.9906440841156  -16.708673406890114  19.064547841638355  0.000000
1.271  0.000000  0.000000  0.000000  -32.92160653385191  4.917737392718731  46.20258892579501  53.600084756060184  -15.793140387793407  -21.651163879066026  21.68175724008053  48.22164033537652  -16.787192220594292  18.969628804751732  0.000000
1.302  0.000000  0.000000  0.000000  -33.038484820580265  5.183354008071199  46.42250789769328  53.66410540019161  -15.423632503492303  -21.224829112641597  21.460081885032395  49.39382460137652  -16.858091744415702  18.877665876036726  0.000000
1.333  0.000000  0.000000  0.000000  -33.15867650626032  5.432761387200445  46.6008833660319  53.72802195998766  -15.065989454648733  -20.79413870177729  21.25946788875749  50.50416583627777  -16.923915461364004  18.789423616477233  0.000000
1.3639999999999999  0.000000  0.000000  0.000000  -33.27941124078592  5.664260635313929  46.73784885663452  53.794157039699655  -14.722560829353439  -20.36306786987868  21.080178745011665  51.54987533744772  -16.987156450348525  18.705338423266824  0.000000
1.395  0.000000  0.000000  0.000000  -33.400947381475184  5.877275646362307  46.83827061358763  53.863392877108  -14.395412766594642  -19.935541274540153  20.922579387819756  52.527040312991915  -17.04971717868876  18.625519370334718  0.000000
1.426  0.000000  0.000000  0.000000  -33.52042444559578  6.070867569274566  46.90262182723056  53.93621583221826  -14.08570556730856  -19.51655848956504  20.78690282716328  53.43228099574862  -17.113973338348565  18.550238802247595  0.000000
1.457  0.000000  0.000000  0.000000  -33.63779567427311  6.244608204659357  46.935907448844304  54.01181123808107  -13.794008535123579  -19.111286814950958  20.67342285274611  54.261374948696165  -17.181609448587718  18.479685527552835  0.000000
